<svg xmlns="http://www.w3.org/2000/svg" width="96" height="96" viewBox="0 0 96 96" fill="none">
  <title>Community Q&amp;A</title>
  <path d="M 52 20 H 82 Q 86 20 86 24 V 46 Q 86 50 82 50 H 66 L 58 58 V 50 H 52 Q 48 50 48 46 V 24 Q 48 20 52 20 Z" stroke="currentColor" stroke-width="4" stroke-linejoin="round"></path>
  <path d="M 14 40 H 42 Q 46 40 46 44 V 66 Q 46 70 42 70 H 30 L 22 78 V 70 H 14 Q 10 70 10 66 V 44 Q 10 40 14 40 Z" fill="#3f5d2a" opacity="0.9"></path>
  <ellipse cx="28" cy="55" rx="9" ry="4" fill="#fffaf0" opacity="0.85" transform="rotate(-25 28 55)"></ellipse>
</svg>