
<svg xmlns="http://www.w3.org/2000/svg" width="160" height="160" viewBox="0 0 160 160">
  <rect width="160" height="160" fill="#f5ede0"></rect>
  <g opacity="0.45">
    <g stroke="#3f5d2a" stroke-width="1.2" fill="none" opacity="0.55">
      <path d="M -10 120 Q 40 80 80 100 T 170 90"></path>
      <path d="M 0 40 Q 40 10 80 30 T 170 20"></path>
    </g>
    <g transform="translate(36 40)"><ellipse cx="0" cy="-10" rx="5" ry="9" fill="#c2531c" opacity="0.8" transform="rotate(0)"></ellipse><ellipse cx="0" cy="-10" rx="5" ry="9" fill="#c2531c" opacity="0.8" transform="rotate(60)"></ellipse><ellipse cx="0" cy="-10" rx="5" ry="9" fill="#c2531c" opacity="0.8" transform="rotate(120)"></ellipse><ellipse cx="0" cy="-10" rx="5" ry="9" fill="#c2531c" opacity="0.8" transform="rotate(180)"></ellipse><ellipse cx="0" cy="-10" rx="5" ry="9" fill="#c2531c" opacity="0.8" transform="rotate(240)"></ellipse><ellipse cx="0" cy="-10" rx="5" ry="9" fill="#c2531c" opacity="0.8" transform="rotate(300)"></ellipse><circle cx="0" cy="0" r="4" fill="#e39412"></circle></g>
    <g transform="translate(120 118)"><ellipse cx="0" cy="-10" rx="4" ry="8" fill="#e39412" opacity="0.85" transform="rotate(0)"></ellipse><ellipse cx="0" cy="-10" rx="4" ry="8" fill="#e39412" opacity="0.85" transform="rotate(60)"></ellipse><ellipse cx="0" cy="-10" rx="4" ry="8" fill="#e39412" opacity="0.85" transform="rotate(120)"></ellipse><ellipse cx="0" cy="-10" rx="4" ry="8" fill="#e39412" opacity="0.85" transform="rotate(180)"></ellipse><ellipse cx="0" cy="-10" rx="4" ry="8" fill="#e39412" opacity="0.85" transform="rotate(240)"></ellipse><ellipse cx="0" cy="-10" rx="4" ry="8" fill="#e39412" opacity="0.85" transform="rotate(300)"></ellipse><circle cx="0" cy="0" r="3" fill="#c2531c"></circle></g>
    <g transform="translate(110 32)">
      <ellipse cx="0" cy="0" rx="3" ry="5" fill="#c2531c" opacity="0.75"></ellipse>
      <ellipse cx="0" cy="-2" rx="2" ry="4" fill="#e39412" opacity="0.85"></ellipse>
    </g>
    <g transform="translate(26 118)">
      <ellipse cx="0" cy="0" rx="3" ry="5" fill="#e39412" opacity="0.75" transform="rotate(20)"></ellipse>
    </g>
    <g fill="#3f5d2a" opacity="0.7">
      <ellipse cx="55" cy="94" rx="5" ry="2" transform="rotate(-20 55 94)"></ellipse>
      <ellipse cx="95" cy="100" rx="5" ry="2" transform="rotate(25 95 100)"></ellipse>
      <ellipse cx="50" cy="22" rx="5" ry="2" transform="rotate(-20 50 22)"></ellipse>
      <ellipse cx="100" cy="26" rx="5" ry="2" transform="rotate(30 100 26)"></ellipse>
      <ellipse cx="140" cy="60" rx="5" ry="2" transform="rotate(60 140 60)"></ellipse>
      <ellipse cx="18" cy="70" rx="5" ry="2" transform="rotate(50 18 70)"></ellipse>
    </g>
    <g fill="#c2531c" opacity="0.5">
      <circle cx="75" cy="64" r="1.5"></circle>
      <circle cx="148" cy="140" r="1.5"></circle>
      <circle cx="12" cy="16" r="1.5"></circle>
    </g>
  </g>
</svg>